<svg width="48" height="48" viewBox="0 0 48 48" fill="none" xmlns="http://www.w3.org/2000/svg">
<path d="M13.0291 34.0945L13.0291 34.0946L13.0352 34.1007C16.08 37.1454 19.7557 38.684 24.0159 38.684C26.8022 38.684 29.4188 37.993 31.8017 36.5882C34.1567 35.1997 36.0721 33.3234 37.4705 30.9336C38.8683 28.5449 39.5799 25.9476 39.5799 23.152C39.5799 20.3581 38.8692 17.7446 37.4705 15.3544C36.0765 12.9723 34.1796 11.0754 31.7975 9.68138C29.4032 8.28025 26.8049 7.588 24.0159 7.588C21.2295 7.588 18.613 8.27899 16.2301 9.68385C13.8704 11.075 11.9596 12.9676 10.5494 15.3473C9.12422 17.7524 8.45189 20.3712 8.45189 23.152C8.45189 27.3532 9.99381 31.0241 13.0291 34.0945ZM30.3133 26.8556L30.3195 26.8539L30.3133 26.8556ZM7.48389 23.152C7.48389 20.1505 8.2309 17.388 9.71128 14.8523C11.197 12.3074 13.2033 10.3011 15.7482 8.8154C18.2812 7.33655 21.0273 6.604 24.0159 6.604C26.2452 6.604 28.382 7.04294 30.4218 7.90877C32.47 8.77814 34.2149 9.96701 35.6965 11.4339C37.1635 12.8864 38.3366 14.6389 39.2096 16.7105C40.0772 18.7692 40.5159 20.8913 40.5159 23.152C40.5159 25.3813 40.077 27.5181 39.2111 29.5579C38.34 31.6103 37.1508 33.3678 35.6912 34.8273C34.2358 36.2828 32.4797 37.4577 30.4218 38.3312C28.3813 39.1973 26.2605 39.636 24.0159 39.636C21.7685 39.636 19.6159 39.1963 17.578 38.3312C15.5262 37.4603 13.7661 36.2702 12.2873 34.8061C10.8233 33.3566 9.6613 31.6017 8.76749 29.5459C7.89645 27.5425 7.48389 25.4123 7.48389 23.152Z" fill="black" stroke="#FCFCFC" stroke-width="3"/>
</svg>
