<svg width="80" height="46" viewBox="0 0 80 46" fill="none" xmlns="http://www.w3.org/2000/svg">
<path d="M54.0767 5.0767H56.1245C60.1489 5.0767 63.4113 8.33909 63.4113 12.3634V39.9233H61.3635C57.3391 39.9233 54.0767 36.6609 54.0767 32.6365V5.0767Z" fill="#9654F4" stroke="#9654F4" stroke-width="0.153405"/>
<path d="M78.9232 34.9024C78.9232 37.5081 76.8329 39.6191 74.2559 39.6191C71.679 39.6191 69.5887 37.5081 69.5887 34.9024C69.5887 32.2966 71.679 30.1856 74.2559 30.1856C76.8329 30.1856 78.9232 32.2966 78.9232 34.9024Z" fill="#9654F4" stroke="#9654F4" stroke-width="0.153405"/>
<path d="M63.488 20.3696H65.6742C67.877 20.3696 69.6627 22.1554 69.6627 24.3582V35.4348" stroke="#9654F4" stroke-width="0.30681"/>
<path d="M3.89883 8.74H5.69883V13.06H9.92883V8.74H11.7288V19H9.92883V14.635H5.69883V19H3.89883V8.74ZM13.279 15.25C13.279 14.65 13.344 14.11 13.474 13.63C13.614 13.14 13.819 12.725 14.089 12.385C14.369 12.045 14.719 11.785 15.139 11.605C15.569 11.415 16.074 11.32 16.654 11.32C17.794 11.32 18.639 11.67 19.189 12.37C19.749 13.06 20.029 14.02 20.029 15.25C20.029 15.86 19.959 16.41 19.819 16.9C19.689 17.38 19.484 17.79 19.204 18.13C18.934 18.47 18.584 18.73 18.154 18.91C17.734 19.09 17.234 19.18 16.654 19.18C15.504 19.18 14.654 18.84 14.104 18.16C13.554 17.47 13.279 16.5 13.279 15.25ZM15.064 15.25C15.064 16.05 15.179 16.655 15.409 17.065C15.639 17.475 16.054 17.68 16.654 17.68C17.234 17.68 17.644 17.48 17.884 17.08C18.124 16.68 18.244 16.065 18.244 15.235C18.244 14.455 18.129 13.86 17.899 13.45C17.669 13.03 17.254 12.82 16.654 12.82C16.074 12.82 15.664 13.02 15.424 13.42C15.184 13.82 15.064 14.43 15.064 15.25ZM21.3245 11.5H23.0645V12.355C23.9245 11.825 24.7545 11.48 25.5545 11.32V13.09C25.1845 13.14 24.7745 13.24 24.3245 13.39C23.8745 13.54 23.4595 13.69 23.0795 13.84V19H21.3245V11.5ZM26.5979 11.5H28.3529V19H26.5979V11.5ZM26.5979 8.395H28.3529V10.21H26.5979V8.395ZM29.4316 17.44L32.8966 13.06H29.4316V11.5H34.9966V13.06L31.5466 17.44H34.9966V19H29.4316V17.44ZM35.9401 15.25C35.9401 14.65 36.0051 14.11 36.1351 13.63C36.2751 13.14 36.4801 12.725 36.7501 12.385C37.0301 12.045 37.3801 11.785 37.8001 11.605C38.2301 11.415 38.7351 11.32 39.3151 11.32C40.4551 11.32 41.3001 11.67 41.8501 12.37C42.4101 13.06 42.6901 14.02 42.6901 15.25C42.6901 15.86 42.6201 16.41 42.4801 16.9C42.3501 17.38 42.1451 17.79 41.8651 18.13C41.5951 18.47 41.2451 18.73 40.8151 18.91C40.3951 19.09 39.8951 19.18 39.3151 19.18C38.1651 19.18 37.3151 18.84 36.7651 18.16C36.2151 17.47 35.9401 16.5 35.9401 15.25ZM37.7251 15.25C37.7251 16.05 37.8401 16.655 38.0701 17.065C38.3001 17.475 38.7151 17.68 39.3151 17.68C39.8951 17.68 40.3051 17.48 40.5451 17.08C40.7851 16.68 40.9051 16.065 40.9051 15.235C40.9051 14.455 40.7901 13.86 40.5601 13.45C40.3301 13.03 39.9151 12.82 39.3151 12.82C38.7351 12.82 38.3251 13.02 38.0851 13.42C37.8451 13.82 37.7251 14.43 37.7251 15.25ZM43.9706 11.5H45.7106V11.935C46.1206 11.705 46.4806 11.545 46.7906 11.455C47.1006 11.365 47.4306 11.32 47.7806 11.32C48.2606 11.32 48.6606 11.4 48.9806 11.56C49.3106 11.71 49.5756 11.94 49.7756 12.25C49.9756 12.55 50.1156 12.93 50.1956 13.39C50.2856 13.84 50.3306 14.36 50.3306 14.95V18.985H48.5756V15.01C48.5756 14.67 48.5556 14.37 48.5156 14.11C48.4856 13.85 48.4256 13.63 48.3356 13.45C48.2456 13.27 48.1206 13.135 47.9606 13.045C47.8106 12.945 47.6106 12.895 47.3606 12.895C47.1006 12.895 46.8106 12.935 46.4906 13.015C46.1806 13.085 45.9256 13.16 45.7256 13.24V18.985H43.9706V11.5Z" fill="#FCFCFC"/>
<path d="M3.90818 32.9891C3.90818 32.6225 3.93727 32.2531 3.99545 31.8807C4.05364 31.5084 4.16418 31.1709 4.32709 30.8684C4.49 30.5658 4.71691 30.3185 5.00782 30.1265C5.29873 29.9345 5.67691 29.8385 6.14236 29.8385C6.36345 29.8385 6.602 29.8502 6.858 29.8735C7.11982 29.8967 7.40782 29.9375 7.722 29.9956L7.69582 30.3884C7.11982 30.2836 6.59618 30.2313 6.12491 30.2313C5.71764 30.2313 5.39473 30.3273 5.15618 30.5193C4.91764 30.7113 4.73727 30.9498 4.61509 31.2349C4.49873 31.52 4.42309 31.8255 4.38818 32.1513C4.35909 32.4771 4.34454 32.7738 4.34454 33.0415C4.34454 33.3731 4.36782 33.6989 4.41436 34.0189C4.46091 34.3331 4.554 34.6153 4.69364 34.8655C4.83909 35.1098 5.04273 35.3105 5.30454 35.4676C5.56636 35.6189 5.91545 35.6945 6.35182 35.6945C6.50891 35.6945 6.70091 35.6829 6.92782 35.6596C7.16054 35.6305 7.41654 35.584 7.69582 35.52L7.722 35.904C7.43109 35.968 7.16054 36.0145 6.91036 36.0436C6.666 36.0727 6.45364 36.0873 6.27327 36.0873C5.79618 36.0873 5.40345 36.0029 5.09509 35.8342C4.79254 35.6596 4.55109 35.4298 4.37073 35.1447C4.19618 34.8596 4.074 34.5309 4.00418 34.1585C3.94018 33.7804 3.90818 33.3905 3.90818 32.9891ZM8.63829 32.9891C8.63829 32.256 8.71102 31.6625 8.85648 31.2087C9.00775 30.7491 9.25211 30.4058 9.58957 30.1789C9.93284 29.952 10.4041 29.8385 11.0034 29.8385C11.5794 29.8385 12.039 29.952 12.3823 30.1789C12.7256 30.4058 12.9699 30.7491 13.1154 31.2087C13.2608 31.6684 13.3336 32.2705 13.3336 33.0153C13.3336 33.7658 13.2637 34.3622 13.1241 34.8044C12.9845 35.2465 12.7459 35.5724 12.4085 35.7818C12.0768 35.9855 11.6114 36.0873 11.0121 36.0873C10.4012 36.0873 9.92411 35.9796 9.58084 35.7644C9.23757 35.5433 8.9932 35.2087 8.84775 34.7607C8.70811 34.3127 8.63829 33.7222 8.63829 32.9891ZM9.2492 34.5862C9.36557 34.976 9.56048 35.2582 9.83393 35.4327C10.1074 35.6015 10.5001 35.6858 11.0121 35.6858C11.5067 35.6858 11.8877 35.5985 12.1554 35.424C12.4288 35.2436 12.6208 34.9644 12.7314 34.5862C12.8419 34.2022 12.8972 33.6756 12.8972 33.0065C12.8972 32.3433 12.839 31.8109 12.7227 31.4095C12.6121 31.0022 12.4172 30.7055 12.1379 30.5193C11.8645 30.3273 11.4863 30.2313 11.0034 30.2313C10.4972 30.2313 10.1045 30.3273 9.8252 30.5193C9.55175 30.7055 9.35684 30.9964 9.24048 31.392C9.12993 31.7876 9.07466 32.3171 9.07466 32.9804C9.07466 33.6669 9.13284 34.2022 9.2492 34.5862ZM14.6424 29.9084H16.8591C17.4933 29.9084 17.9588 30.0509 18.2555 30.336C18.5522 30.6211 18.7006 31.072 18.7006 31.6887C18.7006 32.6953 18.302 33.2887 17.5049 33.4691L18.7878 36H18.334L17.0511 33.5389H15.07V36H14.6424V29.9084ZM16.8678 33.1462C17.8104 33.1462 18.2817 32.6691 18.2817 31.7149C18.2817 31.232 18.1653 30.8771 17.9326 30.6502C17.7057 30.4175 17.3478 30.3011 16.8591 30.3011H15.07V33.1462H16.8678ZM20.0884 29.9084H22.3226C22.9684 29.9084 23.4339 30.0655 23.719 30.3796C24.0099 30.688 24.1553 31.1709 24.1553 31.8284C24.1553 32.5033 24.007 33.0065 23.7102 33.3382C23.4135 33.664 22.951 33.8269 22.3226 33.8269H20.516V36H20.0884V29.9084ZM22.3139 33.4342C23.2564 33.4342 23.7277 32.8931 23.7277 31.8109C23.7277 31.2931 23.6142 30.912 23.3873 30.6676C23.1662 30.4233 22.8084 30.3011 22.3139 30.3011H20.516V33.4342H22.3139ZM25.0872 32.9891C25.0872 32.256 25.1599 31.6625 25.3053 31.2087C25.4566 30.7491 25.701 30.4058 26.0384 30.1789C26.3817 29.952 26.853 29.8385 27.4522 29.8385C28.0283 29.8385 28.4879 29.952 28.8312 30.1789C29.1744 30.4058 29.4188 30.7491 29.5642 31.2087C29.7097 31.6684 29.7824 32.2705 29.7824 33.0153C29.7824 33.7658 29.7126 34.3622 29.573 34.8044C29.4333 35.2465 29.1948 35.5724 28.8573 35.7818C28.5257 35.9855 28.0602 36.0873 27.461 36.0873C26.8501 36.0873 26.373 35.9796 26.0297 35.7644C25.6864 35.5433 25.4421 35.2087 25.2966 34.7607C25.157 34.3127 25.0872 33.7222 25.0872 32.9891ZM25.6981 34.5862C25.8144 34.976 26.0093 35.2582 26.2828 35.4327C26.5562 35.6015 26.949 35.6858 27.461 35.6858C27.9555 35.6858 28.3366 35.5985 28.6042 35.424C28.8777 35.2436 29.0697 34.9644 29.1803 34.5862C29.2908 34.2022 29.3461 33.6756 29.3461 33.0065C29.3461 32.3433 29.2879 31.8109 29.1715 31.4095C29.061 31.0022 28.8661 30.7055 28.5868 30.5193C28.3133 30.3273 27.9352 30.2313 27.4522 30.2313C26.9461 30.2313 26.5533 30.3273 26.2741 30.5193C26.0006 30.7055 25.8057 30.9964 25.6893 31.392C25.5788 31.7876 25.5235 32.3171 25.5235 32.9804C25.5235 33.6669 25.5817 34.2022 25.6981 34.5862ZM31.0913 29.9084H33.308C33.9422 29.9084 34.4076 30.0509 34.7043 30.336C35.0011 30.6211 35.1494 31.072 35.1494 31.6887C35.1494 32.6953 34.7509 33.2887 33.9538 33.4691L35.2367 36H34.7829L33.5 33.5389H31.5189V36H31.0913V29.9084ZM33.3167 33.1462C34.2593 33.1462 34.7305 32.6691 34.7305 31.7149C34.7305 31.232 34.6142 30.8771 34.3814 30.6502C34.1545 30.4175 33.7967 30.3011 33.308 30.3011H31.5189V33.1462H33.3167ZM37.8115 29.9258H38.946L40.7264 36H40.29L39.7751 34.2545H36.9824L36.4675 36H36.0224L37.8115 29.9258ZM37.1045 33.8356H39.6529L38.6056 30.3273H38.1605L37.1045 33.8356ZM43.125 30.3011H41.1439V29.9084H45.5075V30.3011H43.5526V36H43.125V30.3011ZM46.4843 29.9084H50.0887V30.3011H46.912V32.7098H49.565V33.1025H46.912V35.6073H50.0887V36H46.4843V29.9084Z" fill="#FCFCFC"/>
</svg>
